<svg id="visual" viewBox="0 0 900 300" width="auto" xmlns="http://www.w3.org/2000/svg" xmlns:xlink="http://www.w3.org/1999/xlink" version="1.1"><path d="M0 252L30 247C60 242 120 232 180 226.3C240 220.7 300 219.3 360 219C420 218.7 480 219.3 540 226C600 232.7 660 245.3 720 245.5C780 245.7 840 233.3 870 227.2L900 221L900 0L870 0C840 0 780 0 720 0C660 0 600 0 540 0C480 0 420 0 360 0C300 0 240 0 180 0C120 0 60 0 30 0L0 0Z" fill="#280a8a"></path><path d="M0 147L30 145.7C60 144.3 120 141.7 180 140.7C240 139.7 300 140.3 360 142.3C420 144.3 480 147.7 540 149.3C600 151 660 151 720 154.3C780 157.7 840 164.3 870 167.7L900 171L900 0L870 0C840 0 780 0 720 0C660 0 600 0 540 0C480 0 420 0 360 0C300 0 240 0 180 0C120 0 60 0 30 0L0 0Z" fill="#37189c"></path><path d="M0 85L30 91.5C60 98 120 111 180 117C240 123 300 122 360 121.8C420 121.7 480 122.3 540 114.8C600 107.3 660 91.7 720 85.5C780 79.3 840 82.7 870 84.3L900 86L900 0L870 0C840 0 780 0 720 0C660 0 600 0 540 0C480 0 420 0 360 0C300 0 240 0 180 0C120 0 60 0 30 0L0 0Z" fill="#4524ae"></path><path d="M0 63L30 61.2C60 59.3 120 55.7 180 58.5C240 61.3 300 70.7 360 67.5C420 64.3 480 48.7 540 42.5C600 36.3 660 39.7 720 39.2C780 38.7 840 34.3 870 32.2L900 30L900 0L870 0C840 0 780 0 720 0C660 0 600 0 540 0C480 0 420 0 360 0C300 0 240 0 180 0C120 0 60 0 30 0L0 0Z" fill="#5330c1"></path></svg>
